<?xml version="1.0" standalone="no"?>
<!DOCTYPE svg PUBLIC "-//W3C//DTD SVG 20010904//EN"
 "http://www.w3.org/TR/2001/REC-SVG-20010904/DTD/svg10.dtd">
<svg version="1.0" xmlns="http://www.w3.org/2000/svg"
 width="360.000000pt" height="360.000000pt" viewBox="0 0 360.000000 360.000000"
 preserveAspectRatio="xMidYMid meet">

<g transform="translate(0.000000,360.000000) scale(0.100000,-0.100000)"
fill="#000000" stroke="none">
<path d="M1667 3119 c-329 -32 -656 -203 -873 -457 -451 -528 -420 -1307 71
-1797 222 -223 495 -351 823 -385 412 -43 865 147 1131 475 178 219 271 446
301 738 27 249 -41 542 -181 783 -164 279 -451 505 -755 592 -118 34 -158 41
-275 52 -125 11 -117 11 -242 -1z m-166 -837 c192 -51 311 -195 439 -535 77
-205 101 -239 205 -277 167 -61 385 -15 385 82 0 49 -75 94 -224 134 -144 39
-252 110 -293 193 -26 54 -24 162 6 229 62 139 248 217 425 178 79 -18 173
-68 213 -114 37 -41 76 -111 70 -125 -2 -7 -38 -22 -78 -34 -41 -12 -81 -24
-90 -28 -12 -4 -22 4 -36 28 -24 39 -110 87 -157 87 -89 0 -181 -62 -174 -117
4 -39 50 -66 186 -109 153 -48 238 -91 289 -147 46 -49 63 -96 63 -171 0 -148
-98 -241 -300 -282 -135 -27 -312 -6 -435 52 -111 53 -158 121 -257 374 -73
186 -105 245 -165 311 -67 72 -129 95 -225 85 -162 -19 -231 -116 -232 -326
-1 -89 3 -113 22 -154 53 -116 127 -166 242 -166 83 0 121 12 187 61 29 22 54
39 57 39 3 0 23 -36 46 -81 39 -78 40 -82 25 -106 -21 -31 -104 -70 -181 -84
-32 -6 -104 -9 -159 -7 -84 4 -111 10 -169 35 -172 76 -264 214 -273 409 -14
272 88 474 273 543 110 42 214 49 315 23z"/>
</g>
</svg>
